<svg width="100%" height="330" viewBox="0 0 500 330" xmlns="http://www.w3.org/2000/svg" preserveAspectRatio="none" font-family="Consolas, 'Courier New', monospace">
  <rect width="500" height="330" rx="6" fill="#0A1420" stroke="#12395A" stroke-width="1.5"/>
  <text x="20" y="34" font-size="16" font-weight="bold" fill="#00D9FF">⚙ TECH STACK</text>
  <line x1="20" y1="48" x2="480" y2="48" stroke="#12395A" stroke-width="1"/>

  <text x="20" y="70" font-size="12" fill="#FCEE0A">BACKEND</text>
  <g>
    <image href="https://raw.githubusercontent.com/devicons/devicon/master/icons/java/java-original.svg" x="20" y="78" width="32" height="32"/>
    <image href="https://raw.githubusercontent.com/devicons/devicon/master/icons/spring/spring-original.svg" x="76" y="78" width="32" height="32"/>
    <image href="https://raw.githubusercontent.com/devicons/devicon/master/icons/python/python-original.svg" x="132" y="78" width="32" height="32"/>
    <image href="https://cdn.jsdelivr.net/gh/devicons/devicon/icons/fastapi/fastapi-original.svg" x="188" y="78" width="32" height="32"/>
  </g>
  <g font-size="10" fill="#8FA3B8" text-anchor="middle">
    <text x="36" y="122">Java</text>
    <text x="92" y="122">Spring</text>
    <text x="148" y="122">Python</text>
    <text x="204" y="122">FastAPI</text>
  </g>

  <text x="20" y="150" font-size="12" fill="#FCEE0A">INFRA &amp; TOOLS</text>
  <g>
    <image href="https://raw.githubusercontent.com/devicons/devicon/master/icons/mysql/mysql-original.svg" x="20" y="158" width="32" height="32"/>
    <image href="https://raw.githubusercontent.com/devicons/devicon/master/icons/docker/docker-original.svg" x="76" y="158" width="32" height="32"/>
    <image href="https://raw.githubusercontent.com/devicons/devicon/master/icons/git/git-original.svg" x="132" y="158" width="32" height="32"/>
    <image href="https://raw.githubusercontent.com/devicons/devicon/master/icons/linux/linux-original.svg" x="188" y="158" width="32" height="32"/>
  </g>
  <g font-size="10" fill="#8FA3B8" text-anchor="middle">
    <text x="36" y="202">MySQL</text>
    <text x="92" y="202">Docker</text>
    <text x="148" y="202">Git</text>
    <text x="204" y="202">Linux</text>
  </g>

  <text x="20" y="230" font-size="12" fill="#FCEE0A">FRONT-END &amp; EXPLORANDO</text>
  <g>
    <image href="https://raw.githubusercontent.com/devicons/devicon/master/icons/react/react-original.svg" x="20" y="238" width="32" height="32"/>
    <image href="https://raw.githubusercontent.com/devicons/devicon/master/icons/javascript/javascript-original.svg" x="76" y="238" width="32" height="32"/>
    <image href="https://raw.githubusercontent.com/devicons/devicon/master/icons/kotlin/kotlin-original.svg" x="132" y="238" width="32" height="32"/>
    <image href="https://raw.githubusercontent.com/devicons/devicon/master/icons/go/go-original.svg" x="188" y="238" width="32" height="32"/>
  </g>
  <g font-size="10" fill="#8FA3B8" text-anchor="middle">
    <text x="36" y="282">React</text>
    <text x="92" y="282">JS</text>
    <text x="148" y="282">Kotlin</text>
    <text x="204" y="282">Go</text>
  </g>
</svg>
